<?xml version="1.0" encoding="UTF-8" standalone="no"?>
<!DOCTYPE svg PUBLIC "-//W3C//DTD SVG 1.1//EN" "http://www.w3.org/Graphics/SVG/1.1/DTD/svg11.dtd">
<svg width="100%" height="100%" viewBox="0 0 2784 1201" version="1.1" xmlns="http://www.w3.org/2000/svg" xmlns:xlink="http://www.w3.org/1999/xlink" xml:space="preserve" xmlns:serif="http://www.serif.com/" style="fill-rule:evenodd;clip-rule:evenodd;stroke-linejoin:round;stroke-miterlimit:2;">
  <defs>
    <filter id="readme-invert">
      <feComponentTransfer>
        <feFuncR type="table" tableValues="1 0"/>
        <feFuncG type="table" tableValues="1 0"/>
        <feFuncB type="table" tableValues="1 0"/>
        <feFuncA type="identity"/>
      </feComponentTransfer>
    </filter>
  </defs>

<g filter="url(#readme-invert)">

    <g id="curves" transform="matrix(1.045703,0,0,1.045703,205.737543,54.683204)">
        <path d="M379.849,644.803C362.974,684.886 328.438,713.651 327.999,716.571C327.773,718.074 326.151,843.868 325.942,888.506C325.683,943.788 328.385,961.951 315.384,969.743C306.478,975.081 285.379,974.555 285.091,949.937C285.09,949.89 285.09,811.44 285.091,809.5C285.091,807.386 287.122,789.36 282.383,803.448C272.308,833.398 244.282,819.098 240.661,811.428C237.953,805.69 234.58,788.855 234.784,776.498C234.793,775.937 234.893,769.832 233.474,769.607C231.451,769.285 191.642,769.108 198.526,721.503C199.314,716.052 200.465,714.977 195.728,712.13C159.078,690.102 172.596,656.343 171.865,654.381C170.142,649.758 145.271,622.758 165.875,582.688C175.435,564.096 178.602,561.544 177.2,558.636C152.828,508.048 152.119,489.06 165.809,470.71C171.889,462.56 176.741,461.414 175.524,458.492C173.38,453.344 160.453,430.305 187.795,404.83C190.682,402.14 196.062,399.948 195.774,397.483C194.945,390.369 190.179,374.292 208.669,355.671C218.255,346.018 230.54,344.431 231.202,341.438C233.941,329.057 236,308.331 267.469,305.123C275.53,304.301 284.821,307.847 285.077,305.415C285.095,305.243 285.093,275.729 285.083,275.527C284.966,272.926 283.504,273.366 246.5,273.366C147.843,273.366 147.514,273.689 142.709,271.095C125.737,261.931 127.868,233.45 154.5,233.402C282.226,233.169 284.259,235.132 285.068,231.451C285.814,228.061 283.605,101.474 286.291,93.428C292.558,74.661 325.087,74.35 325.15,102.5C325.433,230.222 323.073,233.333 327.506,233.397C367.089,233.962 457.461,231.96 465.406,234.756C484.015,241.305 483.285,273.212 456.5,273.365C419.945,273.573 326.933,272.839 325.765,273.842C325.113,274.402 325.142,274.591 325.15,360.5C325.151,369.191 330.202,366.851 346.085,391.766C376.125,438.888 354.499,454.734 343.368,464.351C338.96,468.159 360.817,487.033 343.159,513.271C330.815,531.612 312.995,524.652 310.437,523.653C307.059,522.333 306.206,521.213 304.37,524.431C294.268,542.137 280.45,544.925 271.57,542.263C261.736,539.314 260.385,535.071 257.149,540.277C251.337,549.627 239.993,554.94 229.564,551.306C208.411,543.934 207.285,540.88 204.862,544.733C174.683,592.725 164.701,606.631 176.706,634.401C178.204,637.866 179.154,636.537 179.287,636.317C181.753,632.245 179.714,631.178 208.08,584.245C208.172,584.092 211.772,575.279 218.534,577.396C232.638,581.812 211.796,598.966 192.076,642.305C176.76,675.965 186.151,688.455 201.735,699.109C207.08,702.763 200.262,693.209 237.765,626.645C238.391,625.536 245.072,608.486 253.305,614.776C261.129,620.753 254.612,622.655 235.058,662.281C229.49,673.564 211.081,708.105 212.121,734.512C212.288,738.754 213.059,754.543 234.5,755.494C240.661,755.768 232.623,749.091 264.359,684.431C267.07,678.908 283.513,648.827 289.383,646.258C295.368,643.639 303.297,649.657 297.027,658.143C285.056,674.343 242.03,744.03 250.164,791.57C252.427,804.799 253.023,806.021 260.54,807.126C264.264,807.674 266.554,807.653 278.003,776.317C288.613,747.277 283.634,735.94 317.096,706.058C361.269,666.609 375.352,619.537 376.45,616.482C379.684,607.483 380.372,591.005 390.565,594.317C402.07,598.056 386.407,623.534 388.957,627.176C397.853,639.88 413.878,717.275 439.598,707.753C451.075,703.504 446.388,685.1 440.956,642.447C429.057,549.004 439.819,546.63 419.262,496.599C413.314,482.123 406.977,468.37 408.111,443.469C408.249,440.435 410.042,436.435 407.384,434.693C331.748,385.139 354.925,315.702 407.81,350.015C415.869,355.244 417.287,358.693 418.728,354.591C428.445,326.923 429.966,317.849 438.595,321.281C447.046,324.643 440.056,336.262 431.259,361.415C427.456,372.29 470.833,364.393 477.934,407.432C486.797,461.143 494.661,459.755 495.04,486.499C495.713,534.07 451.008,609.767 451.976,617.454C461.026,689.311 466.047,701.05 453.203,715.23C447.488,721.539 433.568,727.391 417.737,716.003C413.601,713.028 417.652,739.728 424.048,800.596C424.171,801.765 426.943,813.165 418.382,814.297C411.367,815.224 410.359,806.526 410.249,805.579C409.665,800.541 407.809,779.513 401.54,721.496C399.001,698.002 401,697.521 392.721,675.418C387.094,660.397 387.031,660.541 381.586,645.429C381.216,644.403 380.864,644.983 379.849,644.803ZM278.401,319.992C276.762,319.843 275.158,319.404 273.519,319.255C250.136,317.133 240.172,337.762 247.451,359.518C248.669,363.159 249.608,365.965 275.977,398.111C291.18,416.644 319.537,449.296 319.623,449.389C333.404,464.461 352.802,441.694 345.472,421.511C335.629,394.407 312.102,371.709 289.656,346.362C282.964,338.804 285.653,336.784 285.157,324.522C285.026,321.273 279.325,320.319 278.401,319.992ZM248.796,387.268C246.341,384.031 246.36,384.049 246.145,383.772C245.053,382.368 245.021,382.487 243.97,381.13C233,366.964 234.913,365.9 232.451,359.522C230.54,354.574 203.36,370.913 209.809,394.418C215.623,415.609 258.06,453.325 306.781,504.228C308.141,505.648 321.087,519.174 331.334,505.382C339.854,493.913 333.39,481.159 333.203,480.598C329.349,469.06 325.698,472.206 315.693,465.219C305.306,457.965 252.012,391.497 248.796,387.268ZM184.889,440.484C185.47,444.484 183.549,459.491 244.869,509.041C246.83,510.626 262.476,523.268 270.686,527.118C280.992,531.95 286.506,526.068 291.355,518.411C292.767,516.181 292.712,510.438 291.126,508.82C272.286,489.603 272.112,489.862 253.434,470.563C241.893,458.64 218.263,436.133 204.097,415.775C201.229,411.653 199.452,412.753 192.85,419.808C185.596,427.557 184.986,438.714 184.889,440.484ZM204.257,523.811C217.815,533.572 236.001,539.832 240.346,537.226C243.484,535.344 248.617,530.163 245.366,527.67C236.927,521.199 217.911,508.887 190.864,480.173C186.047,475.06 185.93,469.95 180.892,474.903C161.607,493.86 174.783,516.819 185.269,542.605C187.594,548.324 189.173,543.143 191.897,538.754C193.886,535.55 195.371,534.879 192.441,532.573C190.263,530.858 180.551,525.72 184.396,518.439C189.187,509.367 201.269,521.569 204.257,523.811ZM480.917,491.503C480.66,460.089 471.016,456.82 465.375,418.52C461.538,392.464 458.857,391.304 431.33,379.908C408.982,370.657 410.272,368.386 400.256,361.861C367.419,340.467 368.663,371.92 383.144,392.743C406.876,426.869 427.109,421.684 424.225,434.442C418.663,459.057 424.207,471.565 434.534,496.486C456.786,550.183 444.275,602.896 450.658,584.651C459.071,560.604 477.376,529.501 480.917,491.503Z"/>
    </g>
    <g transform="matrix(3.110869,0,0,3.110869,-2391.335475,-736.192297)">
        <text x="1024.303px" y="382.732px" style="font-family:'HiraMaruProN-W4', 'Hiragino Maru Gothic ProN', sans-serif;font-size:64px;">Т<tspan x="1067.183px 1124.783px 1177.263px 1223.983px 1273.263px 1323.183px 1379.503px 1416.431px 1464.431px 1513.071px " y="382.732px 382.732px 382.732px 382.732px 382.732px 382.732px 382.732px 382.732px 382.732px 382.732px ">АЛЛИННCКИЙ</tspan></text>
        <text x="1024.303px" y="453.88px" style="font-family:'HiraMaruProN-W4', 'Hiragino Maru Gothic ProN', sans-serif;font-size:64px;">Б<tspan x="1073.583px 1120.943px 1174.063px 1217.583px 1264.303px 1313.583px 1359.023px 1407.023px 1455.663px " y="453.88px 453.88px 453.88px 453.88px 453.88px 453.88px 453.88px 453.88px 453.88px ">ИБЛЕЙСКИЙ</tspan></text>
        <text x="1024.303px" y="525.028px" style="font-family:'HiraMaruProN-W4', 'Hiragino Maru Gothic ProN', sans-serif;font-size:64px;">Ц<tspan x="1070.383px 1117.743px 1165.743px 1210.543px " y="525.028px 525.028px 525.028px 525.028px ">ЕНТР</tspan></text>
    </g>

</g>
</svg>
